<svg id="visual" viewBox="0 0 900 600" width="900" height="600" xmlns="http://www.w3.org/2000/svg" xmlns:xlink="http://www.w3.org/1999/xlink" version="1.1"><rect x="0" y="0" width="900" height="600" fill="#001220"></rect><defs><linearGradient id="grad1_0" x1="33.3%" y1="0%" x2="100%" y2="100%"><stop offset="20%" stop-color="#001220" stop-opacity="1"></stop><stop offset="80%" stop-color="#001220" stop-opacity="1"></stop></linearGradient></defs><defs><linearGradient id="grad2_0" x1="0%" y1="0%" x2="66.7%" y2="100%"><stop offset="20%" stop-color="#001220" stop-opacity="1"></stop><stop offset="80%" stop-color="#001220" stop-opacity="1"></stop></linearGradient></defs><g transform="translate(900, 0)"><path d="M0 486.7C-64.8 481.9 -129.7 477.1 -186.3 449.7C-242.9 422.3 -291.3 372.3 -319.6 319.6C-347.9 266.9 -356.1 211.4 -380.6 157.7C-405.1 103.9 -445.9 52 -486.7 0L0 0Z" fill="#FBAE3C"></path></g><g transform="translate(0, 600)"><path d="M0 -486.7C58.4 -470.3 116.8 -453.9 179.9 -434.2C242.9 -414.5 310.6 -391.5 344.2 -344.2C377.8 -296.9 377.3 -225.2 395.4 -163.8C413.5 -102.4 450.1 -51.2 486.7 0L0 0Z" fill="#FBAE3C"></path></g></svg>